<?xml version="1.0" standalone="no"?>
<!DOCTYPE svg PUBLIC "-//W3C//DTD SVG 20010904//EN"
 "http://www.w3.org/TR/2001/REC-SVG-20010904/DTD/svg10.dtd">
<svg version="1.0" xmlns="http://www.w3.org/2000/svg"
 width="180.000000pt" height="200.000000pt" viewBox="0 0 180.000000 200.000000"
 preserveAspectRatio="xMidYMid meet">

<g transform="translate(0.000000,200.000000) scale(0.100000,-0.100000)"
fill="#000000" stroke="none">
<path d="M0 1000 l0 -1000 900 0 900 0 0 1000 0 1000 -900 0 -900 0 0 -1000z
m680 594 c76 -23 107 -58 242 -279 115 -187 162 -246 205 -259 19 -6 36 16
157 211 86 138 132 221 126 227 -5 5 -47 12 -93 14 -113 6 -140 -7 -198 -99
-71 -113 -64 -107 -83 -71 -31 61 -14 124 53 195 53 58 95 72 211 71 84 0 116
-5 162 -23 115 -45 122 -17 -77 -336 -117 -188 -182 -282 -197 -288 -53 -20
-148 20 -202 85 -20 24 -89 128 -153 233 -145 233 -151 238 -275 233 -48 -2
-92 -8 -98 -14 -9 -9 33 -83 159 -287 94 -152 174 -282 177 -290 3 -9 -44 -95
-110 -203 -68 -112 -112 -192 -106 -198 12 -12 139 -20 183 -12 48 9 72 36
161 181 42 69 88 132 101 141 14 9 39 14 64 12 l41 -3 -101 -165 c-111 -182
-135 -212 -194 -243 -56 -28 -170 -34 -254 -12 -64 16 -135 47 -145 63 -2 4
30 64 73 132 42 69 100 164 129 211 l53 87 -190 307 c-105 169 -191 311 -191
315 0 10 107 57 156 69 62 14 156 12 214 -5z"/>
</g>
</svg>
